<svg width="50" height="54" viewBox="0 0 50 54" fill="none" xmlns="http://www.w3.org/2000/svg">
<g clip-path="url(#clip0_72_351)">
<path d="M14.2857 0C16.2612 0 17.8571 1.5082 17.8571 3.375V6.75H32.1429V3.375C32.1429 1.5082 33.7388 0 35.7143 0C37.6897 0 39.2857 1.5082 39.2857 3.375V6.75H44.6429C47.6004 6.75 50 9.01758 50 11.8125V16.875H0V11.8125C0 9.01758 2.39955 6.75 5.35714 6.75H10.7143V3.375C10.7143 1.5082 12.3103 0 14.2857 0ZM0 20.25H50V48.9375C50 51.7324 47.6004 54 44.6429 54H5.35714C2.39955 54 0 51.7324 0 48.9375V20.25ZM36.7188 32.168C37.7679 31.1766 37.7679 29.5734 36.7188 28.5926C35.6696 27.6117 33.9732 27.6012 32.9353 28.5926L22.3326 38.6121L17.0871 33.6551C16.0379 32.6637 14.3415 32.6637 13.3036 33.6551C12.2656 34.6465 12.2545 36.2496 13.3036 37.2305L20.4464 43.9805C21.4955 44.9719 23.192 44.9719 24.2299 43.9805L36.7188 32.168Z" fill="#1CBCCF"/>
</g>
<defs>
<clipPath id="clip0_72_351">
<rect width="50" height="54" fill="white"/>
</clipPath>
</defs>
</svg>
