<svg width="50" height="54" viewBox="0 0 50 54" fill="none" xmlns="http://www.w3.org/2000/svg">
<g clip-path="url(#clip0_72_359)">
<path d="M24.75 27C28.5009 27 32.0982 25.5777 34.7505 23.0459C37.4028 20.5142 38.8929 17.0804 38.8929 13.5C38.8929 9.91958 37.4028 6.4858 34.7505 3.95406C32.0982 1.42232 28.5009 0 24.75 0C20.9991 0 17.4018 1.42232 14.7495 3.95406C12.0972 6.4858 10.6071 9.91958 10.6071 13.5C10.6071 17.0804 12.0972 20.5142 14.7495 23.0459C17.4018 25.5777 20.9991 27 24.75 27ZM14.1429 32.8219C5.96652 35.1105 0 42.3246 0 50.8676C0 52.5973 1.46953 54 3.28158 54H46.2184C48.0305 54 49.5 52.5973 49.5 50.8676C49.5 42.3246 43.5335 35.1105 35.3571 32.8219V38.1797C38.4067 38.9285 40.6607 41.5758 40.6607 44.7188V48.9375C40.6607 49.8656 39.8652 50.625 38.8929 50.625H37.125C36.1527 50.625 35.3571 49.8656 35.3571 48.9375C35.3571 48.0094 36.1527 47.25 37.125 47.25V44.7188C37.125 42.852 35.545 41.3438 33.5893 41.3438C31.6336 41.3438 30.0536 42.852 30.0536 44.7188V47.25C31.0259 47.25 31.8214 48.0094 31.8214 48.9375C31.8214 49.8656 31.0259 50.625 30.0536 50.625H28.2857C27.3134 50.625 26.5179 49.8656 26.5179 48.9375V44.7188C26.5179 41.5758 28.7719 38.9285 31.8214 38.1797V32.1574C31.1585 32.0941 30.4845 32.0625 29.7994 32.0625H19.7006C19.0155 32.0625 18.3415 32.0941 17.6786 32.1574V39.0551C20.2309 39.7828 22.0982 42.0398 22.0982 44.7188C22.0982 47.9777 19.3249 50.625 15.9107 50.625C12.4965 50.625 9.72321 47.9777 9.72321 44.7188C9.72321 42.0398 11.5905 39.7828 14.1429 39.0551V32.8219ZM15.9107 47.25C16.614 47.25 17.2885 46.9833 17.7858 46.5086C18.2831 46.0339 18.5625 45.3901 18.5625 44.7188C18.5625 44.0474 18.2831 43.4036 17.7858 42.9289C17.2885 42.4542 16.614 42.1875 15.9107 42.1875C15.2074 42.1875 14.5329 42.4542 14.0356 42.9289C13.5383 43.4036 13.2589 44.0474 13.2589 44.7188C13.2589 45.3901 13.5383 46.0339 14.0356 46.5086C14.5329 46.9833 15.2074 47.25 15.9107 47.25Z" fill="#1CBCCF"/>
</g>
<defs>
<clipPath id="clip0_72_359">
<rect width="49.5" height="54" fill="white"/>
</clipPath>
</defs>
</svg>
