<svg width="50" height="54" viewBox="0 0 50 54" fill="none" xmlns="http://www.w3.org/2000/svg">
<g clip-path="url(#clip0_72_355)">
<path d="M4.125 0C1.84766 0 0 2.26758 0 5.0625V27H12.375C13.1313 27 13.75 27.7594 13.75 28.6875C13.75 29.6156 13.1313 30.375 12.375 30.375H0V37.125H12.375C13.1313 37.125 13.75 37.8844 13.75 38.8125C13.75 39.7406 13.1313 40.5 12.375 40.5H0V48.9375C0 51.7324 1.84766 54 4.125 54H22.8508C22.3094 52.9242 22 51.6586 22 50.298C22 45.3516 24.2172 41.0379 27.5 38.7809V28.6664V5.0625C27.5 2.26758 25.6523 0 23.375 0H4.125ZM13.0625 6.75H14.4375C15.1938 6.75 15.8125 7.50938 15.8125 8.4375V10.9688H17.875C18.6313 10.9688 19.25 11.7281 19.25 12.6562V14.3438C19.25 15.2719 18.6313 16.0312 17.875 16.0312H15.8125V18.5625C15.8125 19.4906 15.1938 20.25 14.4375 20.25H13.0625C12.3062 20.25 11.6875 19.4906 11.6875 18.5625V16.0312H9.625C8.86875 16.0312 8.25 15.2719 8.25 14.3438V12.6562C8.25 11.7281 8.86875 10.9688 9.625 10.9688H11.6875V8.4375C11.6875 7.50938 12.3062 6.75 13.0625 6.75ZM44 28.6875C44 26.4497 43.2757 24.3036 41.9864 22.7213C40.697 21.1389 38.9484 20.25 37.125 20.25C35.3016 20.25 33.553 21.1389 32.2636 22.7213C30.9743 24.3036 30.25 26.4497 30.25 28.6875C30.25 30.9253 30.9743 33.0714 32.2636 34.6537C33.553 36.2361 35.3016 37.125 37.125 37.125C38.9484 37.125 40.697 36.2361 41.9864 34.6537C43.2757 33.0714 44 30.9253 44 28.6875ZM24.75 50.3191C24.75 52.3547 26.0906 54 27.7492 54H46.5008C48.1594 54 49.5 52.3547 49.5 50.3191C49.5 44.898 45.9164 40.5 41.4992 40.5H32.7508C28.3336 40.5 24.75 44.898 24.75 50.3191Z" fill="#1CBCCF"/>
</g>
<defs>
<clipPath id="clip0_72_355">
<rect width="49.5" height="54" fill="white"/>
</clipPath>
</defs>
</svg>
